<svg xmlns="http://www.w3.org/2000/svg" xmlns:svg="http://www.w3.org/2000/svg" xmlns:xlink="http://www.w3.org/1999/xlink" version="1.0" height="579.3pt" width="159pt" viewBox="665 547 167 585.3" ><defs><style type="text/css">
            @font-face {
                font-family: 'noto_regular';
                src: url('https://app.creately.com/diagram/assets/fonts/noto/noto-regular.woff') format('woff'),
                     url('https://app.creately.com/diagram/assets/fonts/noto/noto-regular.woff2') format('woff2');
                font-weight: normal;
                font-style: normal;
            }
        p {
            margin: 0;
        }
        </style></defs><defs><style>
            span{ display: inline-block; }
        </style></defs><g id="2799luslqv"><g transform="translate(700 550)"><linearGradient id="2f159" x1="35.5" y1="-15.5" x2="35.5" y2="31" gradientUnits="userSpaceOnUse"><stop offset="0%" stop-color="rgba(255,255,255,1)"/><stop offset="100%" stop-color="rgba(214,225,254,1)"/></linearGradient><path d="M 15.5,31 L 15.5,31 L 15.500000000000002,31 A 15.5 15.5 0 0 1 0 15.500000000000002 L 0,15.5 L 0,15.500000000000002 A 15.5 15.5 0 0 1 15.500000000000002 0 L 55.5,0 L 55.5,0 L 55.5,0 A 15.5 15.5 0 0 1 71 15.5 L 71,15.5 L 71,15.5 A 15.5 15.5 0 0 1 55.5 31 L 15.5,31 Z" fill="url(#2f159)" stroke="#5573b7" stroke-width="1.5" stroke-linecap="round" stroke-linejoin="round"/></g><g transform="translate(720.5, 556) rotate(0, 15, 9.5)" width="30" height="19"><text text-decoration="none" x="1.5" fill="rgb(0, 51, 112)" font-size="9pt" font-family="Arial"  y="17">Start</text><text text-decoration="none" x="28.5" fill="#4b4b4b" font-size="10pt" font-family="noto_regular"  y="17"></text></g></g><g id="59uhkiwz47"><g transform="translate(685 640)"><linearGradient id="3b75b" x1="50.5" y1="-25.5" x2="50.5" y2="51" gradientUnits="userSpaceOnUse"><stop offset="0%" stop-color="rgba(255,255,255,1)"/><stop offset="100%" stop-color="rgba(214,225,254,1)"/></linearGradient><rect x="0" y="0" width="101" height="51" fill="url(#3b75b)" stroke="#5573b7" stroke-width="1.5" stroke-linecap="round" stroke-linejoin="round"/></g><g transform="translate(697, 648.5) rotate(0, 38.5, 17)" width="77" height="34"><text text-decoration="none" x="3" fill="rgb(0, 51, 112)" font-size="9pt" font-family="Arial"  y="13">Get&#160;</text><text text-decoration="none" x="26" fill="rgb(0, 51, 112)" font-size="9pt" font-family="Arial"  y="13">frequent&#160;</text><text text-decoration="none" x="21.5" fill="rgb(0, 51, 112)" font-size="9pt" font-family="Arial"  y="35">items&#160;</text><text text-decoration="none" x="55.5" fill="#4b4b4b" font-size="10pt" font-family="noto_regular"  y="35"></text></g></g><g id="99vaj5k9up"><g transform="translate(685 740)"><linearGradient id="3b75b" x1="50.5" y1="-25.5" x2="50.5" y2="51" gradientUnits="userSpaceOnUse"><stop offset="0%" stop-color="rgba(255,255,255,1)"/><stop offset="100%" stop-color="rgba(214,225,254,1)"/></linearGradient><rect x="0" y="0" width="101" height="51" fill="url(#3b75b)" stroke="#5573b7" stroke-width="1.5" stroke-linecap="round" stroke-linejoin="round"/></g><g transform="translate(711.5, 756.5) rotate(0, 24, 9)" width="48" height="18"><text text-decoration="none" x="1" fill="rgb(101, 101, 101)" font-size="10pt" font-family="noto_regular"  y="17">Process</text><text text-decoration="none" x="47" fill="#4b4b4b" font-size="10pt" font-family="noto_regular"  y="17"></text></g></g><g id="loj3b58e33"><g transform="translate(685 840)"><linearGradient id="3b75b" x1="50.5" y1="-25.5" x2="50.5" y2="51" gradientUnits="userSpaceOnUse"><stop offset="0%" stop-color="rgba(255,255,255,1)"/><stop offset="100%" stop-color="rgba(214,225,254,1)"/></linearGradient><rect x="0" y="0" width="101" height="51" fill="url(#3b75b)" stroke="#5573b7" stroke-width="1.5" stroke-linecap="round" stroke-linejoin="round"/></g><g transform="translate(697, 848.5) rotate(0, 38.5, 17)" width="77" height="34"><text text-decoration="none" x="3" fill="rgb(0, 51, 112)" font-size="9pt" font-family="Arial"  y="13">Get&#160;</text><text text-decoration="none" x="26" fill="rgb(0, 51, 112)" font-size="9pt" font-family="Arial"  y="13">frequent&#160;</text><text text-decoration="none" x="14.5" fill="rgb(0, 51, 112)" font-size="9pt" font-family="Arial"  y="35">itemsets</text><text text-decoration="none" x="62.5" fill="#4b4b4b" font-size="10pt" font-family="noto_regular"  y="35"></text></g></g><g id="aa2rc4zilc"><g transform="translate(670 938.25)"><path d="M 65.5,0.75 L 0.75,37.5 L 65.5,74.25 L 130.25,37.5 L 65.5,0.75" fill="rgb(246, 244, 249)" stroke="rgb(85, 115, 183)" stroke-width="1.5" stroke-linecap="round" stroke-linejoin="round" stroke-dasharray="0 0"/></g><g transform="translate(690, 967.25) rotate(0, 0, 0)" width="98" height="19"><text text-decoration="none" x="0" fill="#003370" font-size="9pt" font-family="Arial"  y="17">Generate&#160;</text><text text-decoration="none" x="56" fill="#003370" font-size="9pt" font-family="Arial"  y="17">set&#160;&#160;</text><text text-decoration="none" x="79" fill="#003370" font-size="9pt" font-family="Arial"  y="17">is&#160;</text><text text-decoration="none" x="91" fill="#4b4b4b" font-size="10pt" font-family="noto_regular"  y="17"></text></g><g transform="translate(717, 984.25) rotate(0, 0, 0)" width="32" height="19"><text text-decoration="none" x="0" fill="#003370" font-size="9pt" font-family="Arial"  y="17">null?&#160;</text><text text-decoration="none" x="28" fill="#4b4b4b" font-size="10pt" font-family="noto_regular"  y="17"></text></g></g><g id="2ffz8gta0t"><g transform="translate(685 1078.3)"><linearGradient id="3b75b" x1="50.5" y1="-25.5" x2="50.5" y2="51" gradientUnits="userSpaceOnUse"><stop offset="0%" stop-color="rgba(255,255,255,1)"/><stop offset="100%" stop-color="rgba(214,225,254,1)"/></linearGradient><rect x="0" y="0" width="101" height="51" fill="url(#3b75b)" stroke="#5573b7" stroke-width="1.5" stroke-linecap="round" stroke-linejoin="round"/></g><g transform="translate(686.5, 1086.8) rotate(0, 49, 17)" width="98" height="34"><text text-decoration="none" x="3" fill="rgb(0, 51, 112)" font-size="9pt" font-family="Arial"  y="13">Generate&#160;</text><text text-decoration="none" x="59" fill="rgb(0, 51, 112)" font-size="9pt" font-family="Arial"  y="13">strong&#160;</text><text text-decoration="none" x="33.5" fill="rgb(0, 51, 112)" font-size="9pt" font-family="Arial"  y="35">rules&#160;</text><text text-decoration="none" x="64.5" fill="#4b4b4b" font-size="10pt" font-family="noto_regular"  y="35"></text></g></g><g id="a5cojopf47"><g><path d="M 735,580 L 735,640" fill="none" stroke="#5573b7" stroke-width="1.5" stroke-linecap="round" stroke-linejoin="round"/><path d="M 735,640 L 740.75,631.304347826087 L 729.25,631.304347826087 Z" fill="rgb(85,115,183)" stroke="#5573b7" stroke-width="1.5" stroke-linecap="round" stroke-linejoin="round"/></g></g><g id="44osbguxgz"><g><path d="M 735,690 L 735,740" fill="none" stroke="#5573b7" stroke-width="1.5" stroke-linecap="round" stroke-linejoin="round"/><path d="M 735,740 L 740.75,731.304347826087 L 729.25,731.304347826087 Z" fill="rgb(85,115,183)" stroke="#5573b7" stroke-width="1.5" stroke-linecap="round" stroke-linejoin="round"/></g></g><g id="25niiraxwu"><g><path d="M 735,790 L 735,840" fill="none" stroke="#5573b7" stroke-width="1.5" stroke-linecap="round" stroke-linejoin="round"/><path d="M 735,840 L 740.75,831.304347826087 L 729.25,831.304347826087 Z" fill="rgb(85,115,183)" stroke="#5573b7" stroke-width="1.5" stroke-linecap="round" stroke-linejoin="round"/></g></g><g id="27ilbyj4fz"><g><path d="M 735,890 L 735,914.625 L 735.25,914.625 L 735.5,914.625 L 735.5,938.25" fill="none" stroke="#5573b7" stroke-width="1.5" stroke-linecap="round" stroke-linejoin="round"/><path d="M 735.5,938.25 L 741.25,929.554347826087 L 729.75,929.554347826087 Z" fill="rgb(85,115,183)" stroke="#5573b7" stroke-width="1.5" stroke-linecap="round" stroke-linejoin="round"/></g></g><g id="2gqgxakton"><mask id="30a51" x="722" y="1000.25" width="26.5" height="91.04999999999995" maskUnits="userSpaceOnUse"><rect x="722" y="1000.25" width="26.5" height="91.04999999999995" fill="white" /><rect x="723.2500000000001" y="1033.275" width="24" height="25" fill="black" /></mask><g mask="url(#30a51)"><path d="M 735.5,1013.25 L 735.5,1045.775 L 735.25,1045.775 L 735,1045.775 L 735,1078.3" fill="none" stroke="#5573b7" stroke-width="1.5" stroke-linecap="round" stroke-linejoin="round"/><path d="M 735,1078.3 L 740.75,1069.604347826087 L 729.25,1069.604347826087 Z" fill="rgb(85,115,183)" stroke="#5573b7" stroke-width="1.5" stroke-linecap="round" stroke-linejoin="round"/></g><g transform="translate(726.2500000000001, 1036.275)" width="18" height="19"><text text-decoration="none" x="0" fill="rgb(0, 0, 0)" font-size="9pt" font-family="Arial"  y="17">Yes</text><text text-decoration="none" x="20" fill="#4b4b4b" font-size="10pt" font-family="noto_regular"  y="17"></text></g></g><g id="97htcd7asx"><mask id="8c7b0" x="772" y="752" width="62" height="236.75" maskUnits="userSpaceOnUse"><rect x="772" y="752" width="62" height="236.75" fill="white" /><rect x="810" y="849.875" width="22" height="25" fill="black" /></mask><g mask="url(#8c7b0)"><path d="M 801,975.75 L 821,975.75 L 821,870.375 L 821,765 L 785,765" fill="none" stroke="#5573b7" stroke-width="1.5" stroke-linecap="round" stroke-linejoin="round"/><path d="M 785,765 L 793.695652173913,770.75 L 793.695652173913,759.25 Z" fill="rgb(85,115,183)" stroke="#5573b7" stroke-width="1.5" stroke-linecap="round" stroke-linejoin="round"/></g><g transform="translate(813, 852.875)" width="16" height="19"><text text-decoration="none" x="0" fill="rgb(0, 0, 0)" font-size="9pt" font-family="Arial"  y="17">No</text><text text-decoration="none" x="16" fill="#4b4b4b" font-size="10pt" font-family="noto_regular"  y="17"></text></g></g></svg>